<?xml version="1.0" standalone="no"?>
<!DOCTYPE svg PUBLIC "-//W3C//DTD SVG 20010904//EN"
 "http://www.w3.org/TR/2001/REC-SVG-20010904/DTD/svg10.dtd">
<svg version="1.0" xmlns="http://www.w3.org/2000/svg"
 width="1280.000000pt" height="1280.000000pt" viewBox="0 0 1280.000000 1280.000000"
 preserveAspectRatio="xMidYMid meet">
<metadata>
Created by potrace 1.15, written by Peter Selinger 2001-2017
</metadata>
<g transform="translate(0.000000,1280.000000) scale(0.100000,-0.100000)"
fill="#000000" stroke="none">
<path d="M6346 12079 c-39 -31 -44 -44 -101 -273 -28 -116 -64 -240 -79 -276
-66 -156 -79 -209 -80 -320 0 -89 4 -117 28 -184 15 -43 38 -97 51 -120 32
-56 32 -124 -1 -196 -14 -30 -38 -104 -54 -165 l-28 -110 -124 -12 c-328 -32
-677 -138 -1033 -313 -229 -112 -300 -157 -564 -355 -235 -175 -360 -262 -461
-318 -65 -36 -209 -97 -229 -97 -6 0 -15 18 -21 41 -15 54 -80 124 -136 145
-97 37 -215 -8 -266 -101 -50 -92 -30 -208 47 -273 l33 -27 -574 -1185 c-315
-652 -619 -1278 -674 -1392 -91 -187 -103 -208 -125 -208 -14 0 -25 -3 -25 -6
0 -18 111 -152 179 -216 179 -168 413 -292 691 -364 188 -49 321 -65 570 -71
264 -6 427 8 628 53 392 88 707 270 893 517 l62 82 -28 3 c-25 3 -36 21 -125
205 -405 839 -1010 2087 -1113 2299 -69 141 -122 259 -119 262 3 3 19 6 36 6
17 0 70 9 117 19 257 57 464 161 833 414 104 72 230 155 280 186 303 183 782
339 1127 366 l86 7 7 -108 c18 -286 72 -548 166 -799 19 -52 26 -83 20 -89
-15 -15 -12 -34 8 -40 16 -5 16 -18 10 -148 -9 -209 -18 -364 -23 -438 -3 -36
-12 -191 -20 -345 -8 -154 -17 -320 -20 -370 -3 -49 -7 -142 -10 -205 -3 -63
-8 -151 -10 -195 -16 -277 -31 -756 -29 -940 1 -120 6 -174 19 -215 22 -71 20
-98 -9 -130 -60 -64 -77 -169 -41 -258 13 -32 15 -45 6 -56 -9 -11 -8 -17 2
-27 11 -12 6 -53 -34 -259 -27 -135 -51 -274 -54 -310 -4 -36 0 -152 9 -259 9
-106 16 -216 16 -245 l0 -51 -252 3 c-154 2 -272 -2 -304 -8 -68 -14 -132 -58
-167 -113 l-28 -44 -119 -6 c-90 -5 -132 -11 -167 -27 -53 -23 -107 -70 -128
-111 -11 -20 -24 -28 -54 -32 -70 -9 -124 -43 -179 -111 -48 -61 -55 -65 -134
-91 -139 -46 -188 -79 -188 -127 0 -17 93 -18 2060 -18 1271 0 2060 4 2060 9
0 27 -23 63 -52 81 -18 11 -74 34 -124 50 -88 30 -94 34 -157 104 -67 74 -122
106 -184 106 -15 0 -28 10 -37 29 -8 15 -32 43 -52 61 -64 55 -111 70 -245 77
-117 6 -120 7 -134 33 -21 40 -97 106 -141 121 -30 11 -106 14 -316 14 l-278
0 0 62 c0 34 7 144 16 245 18 213 17 231 -41 528 -57 297 -54 278 -38 291 10
9 10 15 2 25 -7 9 -6 25 5 59 9 25 16 73 16 106 0 64 -16 107 -57 150 -27 29
-32 68 -14 113 26 65 30 166 21 500 -5 188 -12 379 -14 426 -3 47 -8 146 -11
220 -3 74 -8 169 -10 210 -2 41 -7 127 -10 190 -3 63 -8 149 -10 190 -2 41 -7
122 -10 180 -3 58 -8 139 -10 180 -3 41 -12 203 -20 360 -8 157 -16 312 -18
345 -3 50 0 62 17 76 16 13 18 20 8 31 -9 12 -6 32 19 99 87 237 142 496 159
740 5 84 12 155 15 157 9 9 232 -19 350 -43 364 -76 713 -222 1006 -421 408
-279 498 -333 678 -410 124 -54 237 -87 346 -104 44 -7 85 -14 91 -15 7 -2
-14 -57 -53 -137 -69 -142 -628 -1295 -1028 -2123 -220 -454 -245 -500 -269
-505 l-26 -5 34 -50 c102 -151 283 -299 489 -400 216 -106 406 -159 685 -191
188 -22 556 -15 727 15 298 51 531 138 744 279 97 64 252 212 305 292 l36 55
-26 5 c-29 5 52 -160 -1093 2209 l-278 573 42 42 c133 133 48 358 -141 374
-102 8 -207 -69 -229 -169 -4 -16 -11 -29 -16 -29 -21 0 -150 54 -224 95 -114
62 -220 135 -460 315 -242 182 -339 245 -514 334 -248 126 -497 219 -755 281
-142 35 -339 65 -422 65 -36 0 -44 3 -44 18 0 33 -38 169 -70 247 -16 43 -30
89 -30 103 0 15 -1 35 -2 44 -1 9 15 47 34 85 86 163 97 342 32 497 -49 116
-83 224 -130 417 -43 175 -50 197 -80 227 -38 38 -79 42 -118 11z m-2868
-2756 c4 -38 -25 -60 -57 -44 -47 25 -30 84 22 79 28 -3 32 -7 35 -35z m5920
0 c2 -24 -2 -34 -17 -43 -31 -16 -61 3 -61 39 0 36 8 43 45 39 26 -3 30 -8 33
-35z m-5988 -1603 l0 -1380 -680 0 c-374 0 -680 2 -680 5 0 5 431 898 1038
2150 90 187 193 400 228 473 41 85 69 132 79 132 13 0 15 -144 15 -1380z m124
1303 c21 -43 176 -361 344 -708 167 -346 448 -927 624 -1290 176 -363 322
-666 325 -672 4 -10 -135 -13 -676 -13 l-681 0 0 1380 c0 1115 2 1380 13 1380
7 0 30 -35 51 -77z m5796 -1303 l0 -1380 -680 0 c-374 0 -680 2 -680 5 0 2
275 573 611 1267 337 695 636 1314 666 1376 32 67 60 112 68 112 13 0 15 -175
15 -1380z m299 945 c115 -236 414 -854 665 -1373 251 -519 456 -945 456 -948
0 -2 -306 -4 -680 -4 l-680 0 0 1381 c0 1247 2 1380 16 1377 9 -2 96 -171 223
-433z"/>
</g>
</svg>
